{"asset":{"version":"2.0","generator":"Blockbench 4.9.4 glTF exporter"},"scenes":[{"nodes":[3],"name":"blockbench_export"}],"scene":0,"nodes":[{"name":"Core"},{"name":"Torus"},{"name":"Mesh_Soul","children":[0,1]},{"name":"Mesh_Soul","mesh":0,"children":[2],"skin":0}],"bufferViews":[{"buffer":0,"byteOffset":0,"byteLength":5904,"target":34962,"byteStride":12},{"buffer":0,"byteOffset":5904,"byteLength":5904,"target":34962,"byteStride":12},{"buffer":0,"byteOffset":11808,"byteLength":3936,"target":34962,"byteStride":8},{"buffer":0,"byteOffset":15744,"byteLength":3936,"target":34962,"byteStride":8},{"buffer":0,"byteOffset":19680,"byteLength":7872,"target":34962,"byteStride":16},{"buffer":0,"byteOffset":27552,"byteLength":1440,"target":34963},{"buffer":0,"byteOffset":28992,"byteLength":192}],"buffers":[{"byteLength":29184,"uri":"data:application/octet-stream;base64,"}],"accessors":[{"bufferView":0,"componentType":5126,"count":492,"max":[0.08531250059604645,0.21730849146842957,0.2552632987499237],"min":[-0.08531250059604645,-0.21730849146842957,-0.2552632987499237],"type":"VEC3"},{"bufferView":1,"componentType":5126,"count":492,"max":[0.8456804752349854,0.9472894668579102,1],"min":[-0.8456804752349854,-0.9472895264625549,-1],"type":"VEC3"},{"bufferView":2,"componentType":5126,"count":492,"max":[0.625,0.5625],"min":[0,0],"type":"VEC2"},{"bufferView":3,"componentType":5123,"count":492,"max":[0,2,0,0],"min":[0,1,0,0],"type":"VEC4"},{"bufferView":4,"componentType":5126,"count":492,"max":[0,1,0,0],"min":[0,1,0,0],"type":"VEC4"},{"bufferView":5,"componentType":5123,"count":720,"max":[491],"min":[0],"type":"SCALAR"},{"bufferView":6,"componentType":5126,"count":3,"max":[1,0,0,0,0,1,0,0,0,0,1,0,0,0,0,1],"min":[1,0,0,0,0,1,0,0,0,0,1,0,0,0,0,1],"type":"MAT4"}],"materials":[{"pbrMetallicRoughness":{"metallicFactor":0,"roughnessFactor":1,"baseColorTexture":{"index":0}},"alphaMode":"MASK","alphaCutoff":0.05,"doubleSided":true}],"textures":[{"sampler":0,"source":0}],"samplers":[{"magFilter":9728,"minFilter":9728,"wrapS":33071,"wrapT":33071}],"images":[{"mimeType":"image/png","uri":"data:image/png;base64,"}],"meshes":[{"primitives":[{"mode":4,"attributes":{"POSITION":0,"NORMAL":1,"TEXCOORD_0":2,"JOINTS_0":3,"WEIGHTS_0":4},"indices":5,"material":0}]}],"skins":[{"inverseBindMatrices":6,"joints":[2,0,1],"skeleton":2}]}