{"asset":{"version":"2.0","generator":"Blockbench 4.9.4 glTF exporter"},"scenes":[{"nodes":[3],"name":"blockbench_export"}],"scene":0,"nodes":[{"name":"Core"},{"name":"Torus"},{"name":"Mesh_Soul","children":[0,1]},{"name":"Mesh_Soul","mesh":0,"children":[2],"skin":0}],"bufferViews":[{"buffer":0,"byteOffset":0,"byteLength":31536,"target":34962,"byteStride":12},{"buffer":0,"byteOffset":31536,"byteLength":31536,"target":34962,"byteStride":12},{"buffer":0,"byteOffset":63072,"byteLength":21024,"target":34962,"byteStride":8},{"buffer":0,"byteOffset":84096,"byteLength":21024,"target":34962,"byteStride":8},{"buffer":0,"byteOffset":105120,"byteLength":42048,"target":34962,"byteStride":16},{"buffer":0,"byteOffset":147168,"byteLength":7632,"target":34963},{"buffer":0,"byteOffset":154800,"byteLength":192}],"buffers":[{"byteLength":154992,"uri":"data:application/octet-stream;base64,"}],"accessors":[{"bufferView":0,"componentType":5126,"count":2628,"max":[0.0648375004529953,0.32818958163261414,0.29343751072883606],"min":[-0.0648375004529953,-0.32818958163261414,-0.29343751072883606],"type":"VEC3"},{"bufferView":1,"componentType":5126,"count":2628,"max":[1,1,1],"min":[-1,-1,-1],"type":"VEC3"},{"bufferView":2,"componentType":5126,"count":2628,"max":[0.4375,0.5625],"min":[0,0],"type":"VEC2"},{"bufferView":3,"componentType":5123,"count":2628,"max":[0,2,0,0],"min":[0,1,0,0],"type":"VEC4"},{"bufferView":4,"componentType":5126,"count":2628,"max":[0,1,0,0],"min":[0,1,0,0],"type":"VEC4"},{"bufferView":5,"componentType":5123,"count":3816,"max":[2627],"min":[0],"type":"SCALAR"},{"bufferView":6,"componentType":5126,"count":3,"max":[1,0,0,0,0,1,0,0,0,0,1,0,0,0,0,1],"min":[1,0,0,0,0,1,0,0,0,0,1,0,0,0,0,1],"type":"MAT4"}],"materials":[{"pbrMetallicRoughness":{"metallicFactor":0,"roughnessFactor":1,"baseColorTexture":{"index":0}},"alphaMode":"MASK","alphaCutoff":0.05,"doubleSided":true}],"textures":[{"sampler":0,"source":0}],"samplers":[{"magFilter":9728,"minFilter":9728,"wrapS":33071,"wrapT":33071}],"images":[{"mimeType":"image/png","uri":"data:image/png;base64,"}],"meshes":[{"primitives":[{"mode":4,"attributes":{"POSITION":0,"NORMAL":1,"TEXCOORD_0":2,"JOINTS_0":3,"WEIGHTS_0":4},"indices":5,"material":0}]}],"skins":[{"inverseBindMatrices":6,"joints":[2,0,1],"skeleton":2}]}